<svg width="128" height="27" viewBox="0 0 128 27" fill="none" xmlns="http://www.w3.org/2000/svg">
<g clip-path="url(#clip0_31_857)">
<path fill-rule="evenodd" clip-rule="evenodd" d="M30.0218 19.2107C32.6544 19.2107 33.8337 17.3048 33.8337 13.4929V6.05014H36.7379V15.126V19.874C36.7379 25.2893 32.926 26.8629 29.1749 26.8629C24.8199 26.8629 22.9023 23.2566 26.3922 20.6486C25.6617 20.1171 25.1173 19.3297 24.7953 18.2629C23.9639 20.4275 22.508 21.5084 20.7947 21.5084C18.5254 21.5084 17.4974 19.9956 17.4974 17.1522V11.4951H17.4987V3.26751C17.4987 2.9352 17.4987 2.81366 17.3772 2.81366C17.2556 2.81366 17.1948 2.93391 17.1043 3.29725L12.2024 21.1774H7.18025L3.12657 6.77683C1.94732 2.57186 3.73172 0 7.08974 0C10.6896 0 11.8093 2.17748 11.8093 4.05368C11.8093 5.00019 11.618 5.97126 11.2973 6.90096C10.9921 7.78281 10.1232 9.49351 9.63703 10.2448L7.33154 9.03448C7.47617 8.77539 7.61316 8.5444 7.74356 8.32453L7.74356 8.32453L7.74357 8.32452C8.04919 7.80921 8.31858 7.35498 8.5651 6.74321C8.8431 6.05531 8.96594 5.38164 8.96594 4.81011C8.96594 3.6606 8.3608 2.75288 7.39231 2.75288C6.15229 2.75288 5.15406 3.44854 6.06177 6.86605H6.06307L9.39135 19.2094H9.93572L13.9286 3.84162C14.504 1.63311 15.5928 0 17.4987 0C19.4047 0 20.7055 1.059 20.7055 3.177V13.8562H20.7042V16.9401C20.7042 18.5138 21.158 19.2094 21.9144 19.2094C23.6691 19.2094 24.4553 16.6686 24.4553 13.4916V6.05014H27.3594V15.0355C27.3594 18.303 28.3577 19.2107 30.0218 19.2107ZM29.1749 24.5639C31.2321 24.5639 33.8337 23.8385 33.8337 19.2702V18.6857C32.8329 20.571 31.2308 21.5097 29.4167 21.5097C28.6641 21.5097 27.9814 21.4011 27.3788 21.1761C26.0431 22.8442 26.8138 24.5639 29.1749 24.5639ZM55.8192 5.59635C51.1901 5.59635 48.3467 8.86387 48.3467 13.5835H48.3454C48.3454 18.2126 50.9781 21.6003 55.8179 21.6003C59.8121 21.6003 61.9896 19.4513 62.8068 16.5174H59.8418C59.569 17.5156 58.541 19.2405 55.8787 19.2405C52.9137 19.2405 51.3711 16.9415 51.3711 14.4304H62.9581V13.2809C62.9581 8.62207 60.4483 5.59635 55.8192 5.59635ZM51.3724 12.1016C51.494 9.65133 53.3081 7.95745 55.7287 7.95745C58.3303 7.95745 59.9337 9.74184 59.9337 12.1016H51.3724ZM42.5163 8.92432H42.4569V6.08092H39.5527V21.1772H42.4569V13.4021C42.4569 10.4372 44.3628 8.47046 46.9941 8.47046C47.3562 8.47046 47.629 8.47046 47.9316 8.62174V5.80809C47.5088 5.74731 47.1454 5.74731 46.5403 5.74731C44.5438 5.74731 43.3025 7.04811 42.5163 8.92432ZM106.656 6.08114H109.56V21.1761H106.656V6.08114ZM120.421 5.59635C118.031 5.59635 116.609 6.7769 115.701 7.86564H115.672V6.08124H112.797V26.4402H115.672V19.3013H115.701C116.609 20.5116 118.031 21.6003 120.421 21.6003C124.233 21.6003 127.167 18.5746 127.167 13.6132C127.167 8.65181 124.233 5.59635 120.421 5.59635ZM119.936 19.2108C117.334 19.2108 115.701 17.032 115.701 13.6145C115.701 10.197 117.334 8.01822 119.936 8.01822C122.748 8.01822 124.171 10.6496 124.171 13.6145C124.171 16.5794 122.75 19.2108 119.936 19.2108ZM0 21.1763H3.02571L5.07389 16.0494L2.57961 14.9542L0 21.1763ZM99.1839 8.92432H99.2447C100.092 7.04811 101.272 5.74731 103.328 5.74731C103.903 5.74731 104.236 5.74731 104.659 5.80809V8.62174C104.356 8.47046 104.114 8.47046 103.751 8.47046C101.089 8.47046 99.1826 10.4372 99.1826 13.4008H99.1839V21.1759H96.3095V6.08092H99.1839V8.92432ZM90.9252 17.001V8.43981H93.8293V6.08001H90.9252V1.24015H88.0507V6.08001H85.8422V8.43981H88.0507V16.9403C88.0507 20.3591 89.5946 21.3573 92.0747 21.3573C92.6798 21.3573 93.1634 21.3275 93.9198 21.1763V18.8165C93.8094 18.8348 93.7126 18.852 93.6242 18.8676C93.2769 18.9291 93.059 18.9677 92.6488 18.9677C91.4075 18.9677 90.9239 18.6044 90.9239 17.001H90.9252ZM106.444 0.241536H109.742V3.3875H106.444V0.241536ZM77.5333 17.7574V10.7996C77.5333 6.89715 75.052 5.59635 71.906 5.59635C67.308 5.59635 65.4021 7.86564 65.2508 10.7698H68.1847C68.336 8.74232 69.1842 7.95615 71.8155 7.95615C73.993 7.95615 74.6589 8.86387 74.6589 9.92287C74.6589 11.4047 73.2663 11.7073 70.8768 12.1314C67.0649 12.8878 64.493 13.855 64.493 17.2738H64.4943C64.4943 19.8444 66.4908 21.599 69.4557 21.599C71.9668 21.599 73.7215 20.6008 74.6292 19.0272H74.69C74.902 20.7818 75.6882 21.3572 77.1105 21.3572C77.5082 21.3572 77.9269 21.275 78.332 21.1955L78.3322 21.1955C78.4196 21.1783 78.5065 21.1612 78.5924 21.1452V19.3297C78.4113 19.3905 78.3208 19.3905 78.26 19.3905C77.6846 19.3905 77.5333 18.8164 77.5333 17.7574ZM74.6576 15.2774C74.6576 17.91 72.7827 19.2405 70.1204 19.2405C68.336 19.2418 67.5795 18.5151 67.5795 17.063C67.5795 15.5204 68.729 14.733 71.3306 14.2494C71.5535 14.1926 71.772 14.1384 71.984 14.0858C73.2404 13.7738 74.2706 13.5179 74.6589 13.1296V15.2774H74.6576ZM80.9417 0H83.8459V21.1761H80.9417V0Z" fill="#191919"/>
</g>
<defs>
<clipPath id="clip0_31_857">
<rect width="128" height="27" fill="white"/>
</clipPath>
</defs>
</svg>
