<svg width="158" height="24" viewBox="0 0 158 24" fill="none" xmlns="http://www.w3.org/2000/svg">
<g clip-path="url(#clip0_1111_36793)">
<path d="M48.1416 5.26446L36.3453 17.0469C36.183 17.1919 36.1606 17.1695 35.9724 17.2886L35.7807 17.3163C35.242 17.2904 34.9658 17.0348 34.9658 16.5445V0H7.17065C5.17813 0 3.49295 0.71482 2.09094 2.13928C0.688921 3.56374 0 5.28345 0 7.30878C0 9.3341 0.701007 11.0676 2.09094 12.5042C3.49295 13.9407 5.19022 14.6555 7.18273 14.6555H19.6765C20.1824 14.6555 20.6106 14.8368 20.9681 15.2081C21.3134 15.5724 21.4981 16.0109 21.4981 16.5324C21.4981 17.0538 21.3134 17.4924 20.9439 17.8429C20.5744 18.1951 20.1565 18.3695 19.6765 18.3695H0V23.8912H19.6524C21.6311 23.8912 23.3283 23.1764 24.7424 21.7519C26.1445 20.3206 26.8576 18.5905 26.8576 16.5514C26.8576 14.5122 26.1445 12.8063 24.7183 11.337C23.2904 9.86935 21.5931 9.13381 19.6265 9.13381H7.13266C6.62849 9.13381 6.21065 8.9577 5.86705 8.60029C5.52173 8.24978 5.36115 7.8164 5.36115 7.30705C5.36115 6.7977 5.52173 6.37813 5.85324 6.03281C6.17266 5.69439 6.60259 5.51827 7.13094 5.51827H29.4941V18.3764C29.4941 19.92 30.0328 21.2253 31.0999 22.2906C32.1669 23.3577 33.4722 23.8912 35.0141 23.8912C36.556 23.8912 37.8492 23.3145 38.9801 22.1473L55.8837 5.26446H48.1416Z" fill="#08315F"/>
<path d="M53.4085 0L48.1406 5.26446H55.8828L61.1524 0H53.4085Z" fill="#EE8100"/>
<path d="M59.8981 23.7824H57.8711V10.7931H59.8981V23.7824Z" fill="#231F20"/>
<path d="M71.1003 23.7824H69.1803L64.3147 15.0976V23.7824H62.3516V10.7931H64.2785L69.1234 19.4952V10.7931H71.1003V23.7824Z" fill="#231F20"/>
<path d="M82.828 10.7931L78.5805 23.7824H76.7054L72.4648 10.7931H74.649L77.6395 20.4881L80.6507 10.7931H82.828Z" fill="#231F20"/>
<path d="M92.541 23.7824H84.2031V10.7931H92.3027V13.0273H86.2371V15.9626H91.9142V18.1796H86.2371V21.5517H92.541V23.7859V23.7824Z" fill="#231F20"/>
<path d="M98.9041 24C98.1237 24 97.4416 23.8792 96.8598 23.6357C96.2779 23.394 95.7893 23.0556 95.3973 22.6222C95.0054 22.1888 94.7067 21.6708 94.5029 21.0682C94.2992 20.4674 94.187 19.8061 94.168 19.0878H96.1449C96.1777 19.5505 96.2727 19.9511 96.4281 20.2895C96.5835 20.6297 96.7821 20.9094 97.0203 21.1321C97.2603 21.3549 97.5349 21.5189 97.8439 21.6242C98.153 21.7295 98.4828 21.7831 98.8316 21.7831C99.1613 21.7831 99.4635 21.7433 99.7363 21.6639C100.009 21.5845 100.242 21.4705 100.437 21.3255C100.631 21.1805 100.781 21.0009 100.886 20.7903C100.992 20.5796 101.045 20.3431 101.045 20.0806C101.045 19.8182 100.993 19.5851 100.891 19.3969C100.788 19.2087 100.622 19.0395 100.392 18.891C100.163 18.7425 99.8606 18.6078 99.486 18.4852C99.113 18.3626 98.652 18.2349 98.1064 18.1036C97.4831 17.9379 96.9478 17.7462 96.4972 17.5252C96.0465 17.3059 95.677 17.0452 95.387 16.7465C95.0969 16.4478 94.8828 16.1025 94.7447 15.7105C94.6065 15.3203 94.5357 14.8714 94.5357 14.3638C94.5357 13.8164 94.6307 13.3123 94.8224 12.853C95.014 12.3937 95.2868 11.9966 95.6373 11.6633C95.9895 11.3301 96.4091 11.0677 96.8995 10.8795C97.3881 10.6913 97.932 10.598 98.5311 10.598C99.1303 10.598 99.7225 10.6999 100.237 10.9019C100.752 11.1039 101.197 11.3957 101.57 11.7739C101.943 12.1537 102.236 12.6182 102.451 13.169C102.663 13.7197 102.777 14.3431 102.792 15.0389H100.838C100.695 13.5609 99.9435 12.8219 98.5881 12.8219C97.9268 12.8219 97.4209 12.9549 97.0721 13.219C96.7216 13.4849 96.5472 13.8475 96.5472 14.3103C96.5472 14.4985 96.5852 14.6625 96.6629 14.8023C96.7389 14.9422 96.8615 15.07 97.029 15.1874C97.1964 15.3048 97.4123 15.4118 97.6764 15.5085C97.9406 15.6052 98.2583 15.7002 98.633 15.79C98.9593 15.8694 99.2926 15.9592 99.6362 16.0559C99.978 16.1526 100.315 16.27 100.643 16.4064C100.971 16.5428 101.28 16.7103 101.57 16.9071C101.86 17.1039 102.116 17.3422 102.335 17.6219C102.556 17.9016 102.729 18.2314 102.856 18.6095C102.982 18.9894 103.046 19.4331 103.046 19.939C103.046 20.5382 102.943 21.0855 102.737 21.5828C102.532 22.08 102.245 22.5048 101.879 22.8622C101.513 23.2196 101.076 23.4976 100.567 23.6962C100.059 23.8964 99.5049 23.9949 98.9058 23.9949L98.9041 24Z" fill="#231F20"/>
<path d="M113.166 13.0256H109.774V23.7825H107.733V13.0256H104.355V10.7914H113.166V13.0256Z" fill="#231F20"/>
<path d="M125.227 23.7824H123.25V15.4653L120.9 23.7824H119.189L116.853 15.4653V23.7824H114.883V10.7931H117.528L120.051 20.0512L122.587 10.7931H125.225V23.7824H125.227Z" fill="#231F20"/>
<path d="M136.244 23.7824H127.906V10.7931H136.006V13.0273H129.94V15.9626H135.617V18.1796H129.94V21.5517H136.244V23.7859V23.7824Z" fill="#231F20"/>
<path d="M147.163 23.7824H145.243L140.377 15.0976V23.7824H138.414V10.7931H140.341L145.186 19.4952V10.7931H147.163V23.7824Z" fill="#231F20"/>
<path d="M157.705 13.0256H154.313V23.7825H152.272V13.0256H148.895V10.7914H157.705V13.0256Z" fill="#231F20"/>
</g>
<defs>
<clipPath id="clip0_1111_36793">
<rect width="157.706" height="24" fill="white"/>
</clipPath>
</defs>
</svg>
