<svg width="240" height="240" viewBox="0 0 240 240" fill="none" xmlns="http://www.w3.org/2000/svg">
  <circle cx="120" cy="120" r="120" fill="#27A7E7"/>
  <path d="M54.093 118.784C89.295 103.453 112.765 93.349 124.5 88.472C158.007 74.547 164.972 72.127 169.51 72.047C170.508 72.03 172.741 72.276 174.186 73.449C175.406 74.439 175.742 75.777 175.903 76.716C176.064 77.655 176.265 79.794 176.106 81.466C174.293 100.555 166.438 146.874 162.441 168.254C160.75 177.302 157.419 180.338 154.194 180.635C147.188 181.281 141.87 176.003 135.084 171.556C124.466 164.595 118.468 160.263 108.161 153.47C96.251 145.625 103.973 141.316 110.759 134.265C112.535 132.419 143.39 104.352 143.987 101.804C144.062 101.486 144.131 100.3 143.427 99.675C142.724 99.05 141.685 99.264 140.935 99.434C139.872 99.674 122.944 110.866 90.15 133.01C85.342 136.311 80.986 137.917 77.081 137.829C72.775 137.732 64.49 135.393 58.329 133.391C50.773 130.936 44.768 129.638 45.291 125.466C45.563 123.293 48.497 121.066 54.093 118.784Z" fill="white"/>
</svg>
